<?xml version="1.0" encoding="UTF-8" standalone="no"?>
<!-- Generator: Adobe Illustrator 24.3.0, SVG Export Plug-In . SVG Version: 6.00 Build 0)  -->

<svg
   version="1.1"
   id="Layer_1"
   x="0px"
   y="0px"
   viewBox="0 0 674.82001 139.27"
   xml:space="preserve"
   sodipodi:docname="rhineaero_logo_white.svg"
   width="674.82001"
   height="139.27"
   inkscape:version="1.1 (ce6663b3b7, 2021-05-25)"
   xmlns:inkscape="http://www.inkscape.org/namespaces/inkscape"
   xmlns:sodipodi="http://sodipodi.sourceforge.net/DTD/sodipodi-0.dtd"
   xmlns="http://www.w3.org/2000/svg"
   xmlns:svg="http://www.w3.org/2000/svg"><defs
   id="defs35" /><sodipodi:namedview
   id="namedview33"
   pagecolor="#ffffff"
   bordercolor="#666666"
   borderopacity="1.0"
   inkscape:pageshadow="2"
   inkscape:pageopacity="0.0"
   inkscape:pagecheckerboard="0"
   showgrid="false"
   fit-margin-top="10"
   fit-margin-bottom="10"
   fit-margin-right="10"
   fit-margin-left="10"
   inkscape:zoom="0.44406306"
   inkscape:cx="370.44288"
   inkscape:cy="73.187804"
   inkscape:window-width="1464"
   inkscape:window-height="800"
   inkscape:window-x="72"
   inkscape:window-y="27"
   inkscape:window-maximized="1"
   inkscape:current-layer="Layer_1" />
<style
   type="text/css"
   id="style2">
	.st0{fill:none;stroke:#FF0000;stroke-width:0.1;stroke-miterlimit:10;}
	.st1{fill:none;stroke:#ED1C24;stroke-width:0.1;stroke-miterlimit:10;}
</style>
<path
   d="M 108.07,32.56 C 105.22,68.18 72.4,67.29 72.4,67.29 l 19.16,42.18 H 72.4 L 54.13,67.71 H 44.11 l -8.27,41.76 H 16.7 L 28.78,51.52 77.62,51.59 C 84.87,50.84 95.8,38.49 88.71,31.17 87.1,29.51 84.86,28.6 82.57,28.6 H 43.24 L 34.32,14.14 h 56.61 c 9.87,0 17.86,8.31 17.16,18.16 0,0.09 -0.01,0.17 -0.02,0.26 z"
   id="path4"
   style="fill:#ffffff" />
<g
   id="g12"
   transform="translate(-159.24,-430.89)"
   style="fill:#ffffff">
	<path
   d="m 678.23,494.05 1.96,-11.33 h -57.88 l -9.94,56.57 h 57.87 l 1.96,-11.33 h -44.26 l 2.2,-12.23 h 42.88 l 2.03,-11.33 H 632.1 l 1.79,-10.35 z"
   id="path6"
   style="fill:#ffffff" />
	<path
   d="m 747.36,510.07 c 1.14,-3.02 1.71,-6.75 1.71,-11.21 0,-2.23 -0.38,-4.32 -1.14,-6.28 -0.77,-1.95 -1.91,-3.66 -3.43,-5.13 -1.52,-1.47 -3.43,-2.62 -5.74,-3.46 -2.31,-0.85 -5.02,-1.27 -8.11,-1.27 h -41.09 l -9.94,56.57 h 13.61 l 2.94,-16.87 h 26.73 c 5.38,0 8.07,1.98 8.07,5.95 0,0.32 -0.03,0.72 -0.08,1.18 -0.05,0.46 -0.16,1.16 -0.33,2.08 l -1.38,7.66 h 13.61 l 1.96,-11 c 0.21,-1.2 0.35,-2.18 0.4,-2.94 0.06,-0.76 0.09,-1.44 0.09,-2.03 0,-1.8 -0.32,-3.22 -0.94,-4.28 -0.63,-1.06 -1.48,-1.81 -2.57,-2.25 2.61,-1.46 4.48,-3.7 5.63,-6.72 z m -12.48,-4.69 c -0.38,0.98 -0.92,1.73 -1.63,2.24 -0.7,0.52 -1.53,0.87 -2.48,1.06 -0.95,0.19 -2,0.29 -3.14,0.29 h -29.26 l 2.2,-12.72 h 28.2 c 2.45,0 4.17,0.45 5.18,1.35 1,0.89 1.5,2.21 1.5,3.95 0,1.58 -0.19,2.85 -0.57,3.83 z"
   id="path8"
   style="fill:#ffffff" />
	<path
   d="m 822.92,491.93 c -0.76,-1.9 -2,-3.56 -3.71,-4.97 -1.71,-1.41 -3.95,-2.51 -6.73,-3.3 -2.77,-0.79 -6.19,-1.18 -10.27,-1.18 h -14.34 c -5.55,0 -10.14,0.35 -13.78,1.06 -3.64,0.7 -6.62,1.94 -8.92,3.71 -2.31,1.76 -4.09,4.15 -5.34,7.17 -1.25,3.01 -2.29,6.81 -3.1,11.37 -0.54,2.93 -1.03,5.99 -1.47,9.17 -0.43,3.18 -0.65,5.91 -0.65,8.19 0,2.61 0.38,4.92 1.14,6.93 0.76,2.01 2.04,3.7 3.83,5.05 1.8,1.36 4.16,2.4 7.09,3.1 2.94,0.71 6.58,1.06 10.93,1.06 h 17.93 c 4.18,0 7.78,-0.26 10.8,-0.77 3.02,-0.52 5.57,-1.52 7.66,-3.02 2.09,-1.49 3.78,-3.63 5.06,-6.4 1.27,-2.77 2.29,-6.41 3.05,-10.92 0.33,-2.01 0.61,-4.01 0.86,-5.99 0.24,-1.98 0.45,-3.86 0.61,-5.63 0.16,-1.76 0.29,-3.38 0.37,-4.85 0.08,-1.46 0.12,-2.69 0.12,-3.66 0,-2.18 -0.38,-4.21 -1.14,-6.12 z m -12.72,12.35 c -0.05,0.9 -0.13,1.9 -0.24,3.02 -0.11,1.11 -0.23,2.28 -0.37,3.5 -0.14,1.23 -0.31,2.41 -0.53,3.55 -0.49,2.72 -1.05,4.89 -1.67,6.52 -0.63,1.63 -1.56,2.89 -2.81,3.79 -1.25,0.9 -2.91,1.48 -4.97,1.75 -2.07,0.28 -4.76,0.41 -8.08,0.41 h -10.75 c -2.4,0 -4.39,-0.09 -6,-0.29 -1.6,-0.19 -2.88,-0.55 -3.83,-1.1 -0.95,-0.54 -1.63,-1.3 -2.04,-2.28 -0.4,-0.98 -0.61,-2.23 -0.61,-3.75 0,-1.08 0.18,-2.7 0.53,-4.85 0.36,-2.14 0.91,-5.17 1.67,-9.09 0.38,-1.95 0.85,-3.6 1.39,-4.93 0.54,-1.33 1.39,-2.37 2.53,-3.14 1.14,-0.76 2.69,-1.3 4.64,-1.63 1.96,-0.32 4.54,-0.49 7.75,-0.49 h 10.02 c 2.67,0 4.87,0.13 6.61,0.37 1.73,0.25 3.11,0.65 4.11,1.22 1.01,0.57 1.71,1.3 2.12,2.16 0.41,0.87 0.61,1.96 0.61,3.26 0,0.44 -0.02,1.11 -0.08,2 z"
   id="path10"
   style="fill:#ffffff" />
</g>
<path
   d="m 162.78,51.59 -3.92,22.18 h -35.61 l 3.83,-22.18 h -13.84 l -10.26,57.88 h 13.93 l 4.25,-24.1 h 35.7 l -4.25,24.1 h 13.84 l 10.26,-57.88 z"
   id="path14"
   style="fill:#ffffff" />
<path
   d="m 186.89,51.59 -10.18,57.88 h 13.85 l 10.26,-57.88 z"
   id="path16"
   style="fill:#ffffff" />
<path
   d="m 271.38,51.59 -7.34,40.87 -34.2,-40.87 h -18.85 l -10.17,57.88 h 13.84 l 7.59,-43.29 36.29,43.29 h 16.59 l 10.18,-57.88 z"
   id="path18"
   style="fill:#ffffff" />
<path
   d="m 352.04,63.18 2.01,-11.59 h -59.23 l -10.17,57.88 h 59.22 l 2,-11.59 h -45.29 l 2.25,-12.51 h 43.88 l 2.08,-11.6 h -43.96 l 1.84,-10.59 z"
   id="path20"
   style="fill:#ffffff" />
<polygon
   points="601.71,539.89 576.65,440.89 494.23,560.16 514.68,560.16 567.99,482.05 580.36,539.89 "
   id="polygon22"
   transform="translate(-159.24,-430.89)"
   style="fill:#ffffff" />
<path
   class="st0"
   d="M 131.88,51.11"
   id="path24"
   style="fill:#ffffff" />
<path
   class="st0"
   d="M 10,51.11"
   id="path26"
   style="fill:#ffffff" />
<path
   class="st1"
   d="M -62,51.59"
   id="path28"
   style="fill:#ffffff" />
<path
   class="st1"
   d="M 113.24,51.59"
   id="path30"
   style="fill:#ffffff" />
</svg>
